HIERARCHY
ROOT Hips
{
	OFFSET 0.000000 0.000000 0.000000 
	CHANNELS 6 Xposition Yposition Zposition Zrotation Yrotation Xrotation
	JOINT LeftUpLeg
	{
		OFFSET 1.363060 -1.794630 0.839290 
		CHANNELS 3 Zrotation Yrotation Xrotation
		JOINT LeftLeg
		{
			OFFSET 2.448110 -6.726130 0.000000 
			CHANNELS 3 Zrotation Yrotation Xrotation
			JOINT LeftFoot
			{
				OFFSET 2.562200 -7.039590 0.000000 
				CHANNELS 3 Zrotation Yrotation Xrotation
				JOINT LeftToeBase
				{
					OFFSET 0.157640 -0.433110 2.322550 
					CHANNELS 3 Zrotation Yrotation Xrotation
					End Site
					{
						OFFSET 0.000000 0.000000 0.000000 
					}
				}
			}
		}
	}
	JOINT RightUpLeg
	{
		OFFSET -1.305520 -1.794630 0.839290 
		CHANNELS 3 Zrotation Yrotation Xrotation
		JOINT RightLeg
		{
			OFFSET -2.542530 -6.985550 0.000000 
			CHANNELS 3 Zrotation Yrotation Xrotation
			JOINT RightFoot
			{
				OFFSET -2.568260 -7.056230 0.000000 
				CHANNELS 3 Zrotation Yrotation Xrotation
				JOINT RightToeBase
				{
					OFFSET -0.164730 -0.452590 2.363150 
					CHANNELS 3 Zrotation Yrotation Xrotation
					End Site
					{
						OFFSET 0.000000 0.000000 0.000000 
					}
				}
			}
		}
	}
	JOINT Spine
	{
		OFFSET 0.028270 2.035590 -0.193380 
		CHANNELS 3 Zrotation Yrotation Xrotation
		JOINT Spine1
		{
			OFFSET 0.056720 2.048850 -0.042750 
			CHANNELS 3 Zrotation Yrotation Xrotation
			JOINT Neck1
			{
				OFFSET -0.054170 1.746240 0.172020 
				CHANNELS 3 Zrotation Yrotation Xrotation
				JOINT Head
				{
					OFFSET 0.104070 1.761360 -0.123970 
					CHANNELS 3 Zrotation Yrotation Xrotation
					End Site
					{
						OFFSET 0.000000 0.000000 0.000000 
					}
				}
			}
			JOINT LeftArm
			{
				OFFSET 3.362410 1.200890 -0.311210 
				CHANNELS 3 Zrotation Yrotation Xrotation
				JOINT LeftForeArm
				{
					OFFSET 4.983000 -0.000000 -0.000000 
					CHANNELS 3 Zrotation Yrotation Xrotation
					JOINT LeftHand
					{
						OFFSET 3.483560 -0.000000 -0.000000 
						CHANNELS 3 Zrotation Yrotation Xrotation
						JOINT LeftHandIndex1
						{
							OFFSET 0.715260 -0.000000 -0.000000 
							CHANNELS 3 Zrotation Yrotation Xrotation
							End Site
							{
								OFFSET 0.000000 0.000000 0.000000 
							}
						}
					}
				}
			}
			JOINT RightArm
			{
				OFFSET -3.136600 1.374050 -0.404650 
				CHANNELS 3 Zrotation Yrotation Xrotation
				JOINT RightForeArm
				{
					OFFSET -5.241900 -0.000000 -0.000000 
					CHANNELS 3 Zrotation Yrotation Xrotation
					JOINT RightHand
					{
						OFFSET -3.444170 -0.000000 -0.000000 
						CHANNELS 3 Zrotation Yrotation Xrotation
						JOINT RightHandIndex1
						{
							OFFSET -0.622530 -0.000000 -0.000000 
							CHANNELS 3 Zrotation Yrotation Xrotation
							End Site
							{
								OFFSET 0.000000 0.000000 0.000000 
							}
						}
					}
				}
			}
		}
	}
}
MOTION
Frames: 10
Frame Time: 0.041667
-40.509149 17.423089 -15.926166 -4.764194 71.252582 1.539286 -13.006069 -0.666348 -11.154014 0.710734 9.892969 28.227709 1.663712 -6.407754 -1.805676 0.218200 3.007000 8.298300 23.858913 8.101436 -10.512623 -1.359899 -11.729753 32.876011 1.026343 -11.024161 -20.971523 -0.047300 -1.404100 3.861400 0.348578 2.420143 -2.795971 1.489832 1.074463 9.649006 3.902477 -2.852293 21.617157 6.261800 -2.235600 10.596700 -92.180942 3.412698 48.442538 29.300923 -45.416982 -11.999242 -0.663964 0.201663 -7.543505 -7.125000 0.000000 0.000000 84.653072 -9.624439 55.452962 -109.254142 58.237125 -75.045531 0.409667 -1.132267 -39.419535 7.125000 0.000000 0.000000 
-40.507161 17.421764 -15.924730 -4.868454 71.183328 1.465382 -12.961248 -0.732903 -11.149932 0.716215 9.901104 28.243180 1.667343 -6.354181 -2.090355 0.150000 2.496000 6.878500 23.880818 8.186124 -10.459360 -1.356483 -11.713289 32.814928 1.158318 -11.201752 -20.274029 -0.044200 -1.357500 3.733200 0.373225 2.367607 -2.791232 1.730448 1.043891 9.461650 4.153004 -3.460699 21.452459 6.445000 -2.527100 10.298700 -92.230636 3.789349 48.306657 29.653397 -45.712456 -12.217246 -0.673506 0.206918 -7.755047 -7.125000 0.000000 0.000000 84.496233 -9.788475 55.526522 -109.380776 58.233198 -75.166222 0.397781 -1.120593 -39.345236 7.125000 0.000000 0.000000 
-40.505173 17.420107 -15.925393 -4.441682 71.166445 1.850575 -13.111047 -0.747042 -11.109129 0.715409 9.905064 28.247005 1.679487 -6.385359 -2.331171 0.097100 2.009800 5.532700 23.710986 8.252640 -10.413575 -1.378921 -11.721399 32.846697 1.273397 -11.286458 -19.484528 -0.060000 -1.580900 4.348700 0.382591 2.358237 -2.802283 1.804135 1.013355 9.698820 3.785749 -4.741690 22.022930 5.886400 -3.115000 11.319800 -92.352107 3.849172 48.047872 29.637561 -45.731323 -12.216236 -0.676575 0.218242 -7.728800 -7.125000 0.000000 0.000000 84.456542 -9.773117 55.459680 -109.453442 58.237468 -75.247368 0.372368 -1.112681 -39.198678 7.125000 0.000000 0.000000 
-40.502964 17.414805 -15.924178 -4.386345 71.153824 1.919063 -13.136556 -0.728783 -11.127407 0.719067 9.913779 28.260502 1.684109 -6.359170 -2.545841 0.082300 1.850600 5.093000 23.670073 7.984801 -10.536762 -1.394152 -11.738738 32.905599 1.280331 -11.324583 -19.519467 -0.029700 -1.112400 3.058100 0.399017 2.309668 -2.787474 1.999091 0.971157 9.755905 3.798525 -4.349060 21.804469 6.019700 -2.950200 11.035800 -92.701505 3.512165 47.217564 29.732795 -45.808552 -12.309465 -0.683865 0.244578 -7.619396 -7.125000 0.000000 0.000000 84.234989 -9.668424 55.572416 -109.515887 58.248867 -75.313848 0.365989 -1.099860 -39.253491 7.125000 0.000000 0.000000 
-40.500644 17.411492 -15.923294 -4.239342 71.134964 2.065166 -13.192292 -0.717803 -11.131418 0.722932 9.922732 28.276659 1.688827 -6.331420 -2.785212 0.053200 1.488400 4.093700 23.601460 7.874876 -10.590756 -1.414724 -11.757256 32.965541 1.329534 -11.376613 -19.209657 -0.020400 -0.922500 2.535600 0.413885 2.274550 -2.781110 2.160610 0.934879 9.831622 3.730401 -4.587737 21.819549 5.948700 -3.066700 11.123700 -92.917996 3.391672 46.707092 29.829932 -45.896663 -12.389999 -0.690133 0.262267 -7.595789 -7.125000 0.000000 0.000000 84.060113 -9.607523 55.644906 -109.576187 58.257094 -75.382888 0.356062 -1.088557 -39.235951 7.125000 0.000000 0.000000 
-40.498325 17.408068 -15.921969 -4.080436 71.118407 2.221795 -13.254457 -0.689613 -11.152118 0.732093 9.940794 28.318993 1.690274 -6.283487 -3.032652 0.028900 1.097100 3.016200 23.529784 7.742300 -10.654003 -1.436136 -11.776926 33.031152 1.367290 -11.408594 -18.949077 -0.012000 -0.707600 1.944600 0.427246 2.243187 -2.773503 2.315973 0.900046 9.914407 3.658891 -4.714594 21.807460 5.893600 -3.131800 11.173800 -93.128264 3.233240 46.197634 29.913321 -45.971647 -12.463135 -0.696165 0.279574 -7.566981 -7.125000 0.000000 0.000000 83.875502 -9.517038 55.731624 -109.616483 58.267540 -75.435925 0.348711 -1.077662 -39.224708 7.125000 0.000000 0.000000 
-40.495895 17.404755 -15.920091 -3.927708 71.098699 2.373710 -13.314236 -0.640577 -11.186983 0.743840 9.962902 28.373442 1.684361 -6.195859 -3.271114 0.010200 0.652800 1.794000 23.460769 7.596690 -10.718142 -1.454745 -11.793163 33.086411 1.397479 -11.424919 -18.717320 -0.005300 -0.472000 1.297000 0.438646 2.217986 -2.764561 2.465294 0.870618 9.970727 3.623855 -4.734094 21.732626 5.893700 -3.147600 11.121600 -93.304778 3.087150 45.733629 30.000931 -46.046573 -12.537875 -0.701981 0.294462 -7.554571 -7.125000 0.000000 0.000000 83.692389 -9.422841 55.832720 -109.646907 58.277351 -75.478987 0.344053 -1.067741 -39.210890 7.125000 0.000000 0.000000 
-40.493355 17.401883 -15.917551 -3.758046 71.075684 2.541115 -13.376838 -0.564472 -11.236690 0.757636 9.988197 28.438217 1.671146 -6.075221 -3.483968 0.000400 0.136100 0.374000 23.387085 7.457975 -10.780139 -1.473543 -11.809568 33.142389 1.421813 -11.421493 -18.487603 -0.001600 -0.254600 0.699500 0.445570 2.208248 -2.756021 2.585314 0.852440 10.003567 3.608864 -4.737065 21.633228 5.912000 -3.153300 11.031300 -93.418167 2.985462 45.378682 30.075012 -46.108282 -12.600509 -0.706673 0.304618 -7.562341 -7.125000 0.000000 0.000000 83.546910 -9.341891 55.921801 -109.673277 58.283659 -75.514725 0.340933 -1.060135 -39.173941 7.125000 0.000000 0.000000 
-40.490593 17.399011 -15.914238 -3.579471 71.051358 2.717849 -13.436080 -0.455349 -11.303772 0.772757 10.014518 28.507987 1.654175 -5.945280 -3.651525 0.004100 -0.413200 -1.135300 23.312325 7.322652 -10.845449 -1.492684 -11.827368 33.202749 1.438346 -11.405466 -18.296209 0.000000 -0.036800 0.101000 0.446648 2.217320 -2.747759 2.665399 0.848906 10.005966 3.623406 -4.689654 21.491396 5.963500 -3.132300 10.876100 -93.466283 2.923098 45.135350 30.124451 -46.146966 -12.643977 -0.709751 0.309465 -7.582428 -7.125000 0.000000 0.000000 83.455666 -9.284219 55.990878 -109.705303 58.283743 -75.548385 0.339243 -1.055465 -39.116608 7.125000 0.000000 0.000000 
-40.487611 17.395587 -15.910151 -3.398355 71.030820 2.898905 -13.486410 -0.309791 -11.388783 0.788031 10.039519 28.576183 1.641707 -5.851958 -3.766245 0.022100 -0.958700 -2.635200 23.240354 7.201726 -10.912524 -1.512602 -11.847817 33.271115 1.449949 -11.389393 -18.148278 -0.000800 0.178300 -0.489900 0.441382 2.246420 -2.740215 2.697757 0.861110 9.978382 3.664420 -4.612788 21.313743 6.039800 -3.093100 10.668300 -93.452278 2.900673 45.028921 30.137977 -46.154483 -12.659311 -0.710771 0.308899 -7.611262 -7.125000 0.000000 0.000000 83.439568 -9.259522 56.022914 -109.746745 58.276542 -75.581890 0.338677 -1.054308 -39.038212 7.125000 0.000000 0.000000 
